<svg width="300" height="120" viewBox="0 0 567 1" fill="none" xmlns="http://www.w3.org/2000/svg">
<path d="M79.3799 63.7241C79.1509 61.1651 77.9739 58.7841 76.0809 57.0511C74.1869 55.3171 71.7149 54.3561 69.1489 54.3561C66.5839 54.3561 64.1119 55.3171 62.2179 57.0511C60.3249 58.7841 59.1479 61.1651 58.9189 63.7241V107.917C58.7909 109.34 58.9609 110.773 59.4169 112.127C59.8739 113.48 60.6059 114.723 61.5689 115.777C62.5309 116.832 63.7019 117.674 65.0069 118.25C66.3129 118.826 67.7229 119.123 69.1489 119.123C70.5759 119.123 71.9859 118.826 73.2919 118.25C74.5969 117.674 75.7679 116.832 76.7299 115.777C77.6929 114.723 78.4249 113.48 78.8819 112.127C79.3379 110.773 79.5079 109.34 79.3799 107.917V63.7241Z" fill="url(#paint0_linear_20502_81)"/>
<path d="M10.2719 59.1971C8.23994 59.1971 6.25397 59.8011 4.56497 60.9311C2.87597 62.0611 1.55895 63.6681 0.78195 65.5481C0.0039497 67.4271 -0.199011 69.4961 0.196989 71.4911C0.593989 73.4871 1.57194 75.3201 3.00894 76.7581C4.44494 78.1971 6.27497 79.1771 8.26797 79.5741C10.26 79.9711 12.326 79.7671 14.203 78.9881C16.079 78.2101 17.684 76.8911 18.812 75.2001C19.941 73.5081 20.543 71.5191 20.543 69.4841C20.543 66.7561 19.4609 64.1391 17.5349 62.2101C15.6089 60.2811 12.9959 59.1971 10.2719 59.1971Z" fill="url(#paint1_linear_20502_81)"/>
<path d="M49.9619 44.0551C49.7319 41.4961 48.5549 39.1151 46.6619 37.3821C44.7689 35.6481 42.296 34.6871 39.731 34.6871C37.166 34.6871 34.6929 35.6481 32.7999 37.3821C30.9059 39.1151 29.7289 41.4961 29.4999 44.0551V69.5671C29.7289 72.1251 30.9059 74.5061 32.7999 76.2391C34.6929 77.9731 37.166 78.9341 39.731 78.9341C42.296 78.9341 44.7689 77.9731 46.6619 76.2391C48.5549 74.5061 49.7319 72.1251 49.9619 69.5671V44.0551Z" fill="url(#paint2_linear_20502_81)"/>
<path d="M128.109 59.1971C126.078 59.1971 124.092 59.8011 122.402 60.9311C120.713 62.0611 119.397 63.6681 118.619 65.5481C117.842 67.4271 117.638 69.4961 118.035 71.4911C118.431 73.4871 119.409 75.3201 120.846 76.7581C122.282 78.1971 124.113 79.1771 126.105 79.5741C128.098 79.9711 130.163 79.7671 132.04 78.9881C133.917 78.2101 135.521 76.8911 136.65 75.2001C137.778 73.5081 138.381 71.5191 138.381 69.4841C138.381 66.7561 137.299 64.1391 135.372 62.2101C133.446 60.2811 130.833 59.1971 128.109 59.1971Z" fill="url(#paint3_linear_20502_81)"/>
<path d="M108.798 14.5921C108.926 13.1701 108.756 11.7361 108.3 10.3831C107.843 9.02909 107.111 7.78609 106.148 6.73209C105.186 5.67809 104.015 4.8361 102.71 4.2601C101.405 3.6841 99.9939 3.38608 98.5679 3.38608C97.1409 3.38608 95.731 3.6841 94.426 4.2601C93.12 4.8361 91.9489 5.67809 90.9869 6.73209C90.0239 7.78609 89.2919 9.02909 88.8359 10.3831C88.3789 11.7361 88.2099 13.1701 88.3369 14.5921V81.0881C88.2099 82.5111 88.3789 83.9441 88.8359 85.2981C89.2919 86.6511 90.0239 87.8951 90.9869 88.9491C91.9489 90.0031 93.12 90.8451 94.426 91.4211C95.731 91.9971 97.1409 92.2941 98.5679 92.2941C99.9939 92.2941 101.405 91.9971 102.71 91.4211C104.015 90.8451 105.186 90.0031 106.148 88.9491C107.111 87.8951 107.843 86.6511 108.3 85.2981C108.756 83.9441 108.926 82.5111 108.798 81.0881V14.5921Z" fill="url(#paint4_linear_20502_81)"/>
<path d="M434.04 69.8961C434.04 72.0151 433.41 74.0871 432.24 75.8481C431.06 77.6091 429.39 78.9801 427.43 79.7881C425.47 80.5951 423.32 80.8021 421.25 80.3821C419.17 79.9631 417.27 78.9361 415.78 77.4311C414.29 75.9271 413.28 74.0131 412.87 71.9321C412.47 69.8511 412.69 67.6981 413.51 65.7441C414.34 63.7911 415.72 62.1261 417.48 60.9601C419.25 59.7951 421.33 59.1811 423.44 59.1971C424.84 59.1971 426.23 59.4751 427.52 60.0131C428.81 60.5521 429.98 61.3411 430.97 62.3361C431.95 63.3301 432.73 64.5101 433.26 65.8081C433.79 67.1051 434.05 68.4951 434.04 69.8961Z" fill="#F700E7"/>
<path d="M153.008 80.1831V3.07111H172.894V12.4531C177.167 4.96409 186.945 0.849091 195.409 0.849091C205.93 0.849091 214.39 5.3751 218.25 13.6871C224.42 4.3051 232.55 0.849091 242.66 0.849091C256.96 0.849091 270.52 9.49009 270.52 30.1461V80.1831H250.38V34.4261C250.38 26.1141 246.28 19.7771 236.74 19.7771C227.21 19.7771 222.53 26.6901 222.53 35.0021V80.1831H201.819V34.4261C201.819 26.1141 197.628 19.7771 188.26 19.7771C178.892 19.7771 173.88 26.5251 173.88 35.0021V80.1831H153.008Z" fill="#F7F7F7"/>
<path d="M303.71 35.8251L322.61 32.9451C327.05 32.3681 328.45 30.1461 328.45 27.5131C328.45 21.9991 324.18 17.4731 315.47 17.4731C306.76 17.4731 301.33 23.2341 300.76 29.9821L282.27 26.1141C283.5 14.0161 294.68 0.684082 315.3 0.684082C339.71 0.684082 348.75 14.5101 348.75 29.9821V67.9211C348.77 72.0271 349.1 76.1251 349.73 80.1831H330.59C330.1 77.1071 329.85 73.9981 329.85 70.8831C325.9 76.9731 318.59 82.3221 307.17 82.3221C290.73 82.3221 280.71 71.2121 280.71 59.1151C280.71 45.3711 290.9 37.7181 303.71 35.8251ZM328.45 48.9921V45.5361L311.03 48.1691C305.77 48.9921 301.5 51.9551 301.5 57.8801C301.5 62.4071 304.78 66.8511 311.52 66.8511C320.31 66.8511 328.45 62.5711 328.45 48.9921Z" fill="#F7F7F7"/>
<path d="M407.34 23.7271C405.26 23.2881 403.13 23.0681 401.01 23.0691C390.41 23.0691 381.2 28.2531 381.2 44.8771V80.1831H360.33V3.07111H380.55V14.5101C385.23 4.3051 395.91 2.41208 402.41 2.41208C404.05 2.43708 405.7 2.5471 407.34 2.7421V23.7271Z" fill="#F7F7F7"/>
<path d="M460.91 55.0821V66.8511H458.78V65.2051C457.95 66.5211 456.06 67.0151 454.67 67.0151C450.56 67.0151 448.34 64.1351 448.34 60.9251C448.33 60.1121 448.48 59.3041 448.8 58.5531C449.11 57.8021 449.57 57.1241 450.16 56.5601C450.74 55.9971 451.44 55.5601 452.2 55.2771C452.96 54.9951 453.77 54.8721 454.59 54.9181C455.38 54.8561 456.18 54.9791 456.92 55.2791C457.67 55.5791 458.33 56.0471 458.86 56.6461V55.0821H460.91ZM454.59 56.7281C453.76 56.7281 452.95 56.9741 452.26 57.4361C451.57 57.8971 451.03 58.5521 450.71 59.3191C450.4 60.0861 450.31 60.9301 450.48 61.7441C450.64 62.5581 451.04 63.3061 451.62 63.8931C452.21 64.4801 452.96 64.8801 453.77 65.0421C454.58 65.2041 455.42 65.1211 456.19 64.8031C456.96 64.4851 457.61 63.9471 458.07 63.2571C458.53 62.5671 458.78 61.7551 458.78 60.9251C458.79 60.3711 458.69 59.8201 458.48 59.3061C458.27 58.7921 457.97 58.3251 457.57 57.9331C457.18 57.5411 456.72 57.2321 456.2 57.0251C455.69 56.8181 455.14 56.7171 454.59 56.7281Z" fill="#F700E7"/>
<path d="M466.09 51.6261H463.95V66.8011H466.09V51.6261Z" fill="#F700E7"/>
<path d="M475.05 71.4591C472.09 71.4591 469.38 70.3071 469.38 67.5911H471.43C471.43 69.0731 473.49 69.5661 475.05 69.5661C476.61 69.5661 478.91 68.6611 478.91 66.3571V65.1221C477.92 66.5221 476.44 66.7681 475.05 66.7681C471.1 66.7681 468.8 64.2171 468.8 61.0081C468.8 57.7981 470.94 54.9181 475.05 54.9181C475.79 54.8761 476.54 55.0101 477.23 55.3101C477.91 55.6111 478.52 56.0681 478.99 56.6461V55.0821H481.05V66.3571C481.05 70.0601 477.92 71.4591 475.05 71.4591ZM478.91 60.6781C478.94 60.1651 478.87 59.6501 478.7 59.1661C478.52 58.6821 478.25 58.2401 477.89 57.8681C477.53 57.4961 477.11 57.2031 476.63 57.0071C476.15 56.8101 475.64 56.7161 475.13 56.7281C474.57 56.7171 474.01 56.8201 473.49 57.0321C472.97 57.2441 472.5 57.5601 472.11 57.9611C471.72 58.3621 471.41 58.8391 471.21 59.3631C471.01 59.8871 470.92 60.4471 470.94 61.0081C470.93 61.5371 471.02 62.0621 471.22 62.5521C471.42 63.0421 471.72 63.4861 472.1 63.8571C472.47 64.2271 472.92 64.5161 473.42 64.7051C473.91 64.8941 474.44 64.9811 474.97 64.9581C477.59 64.9581 478.91 62.8181 478.91 60.6781Z" fill="#F700E7"/>
<path d="M490.17 67.0151C486.96 67.0151 483.84 65.0401 483.84 61.0071C483.84 56.9751 487.04 54.9171 490.17 54.9171C493.29 54.9171 496.49 56.9751 496.49 61.0071C496.49 65.0401 493.29 67.0151 490.17 67.0151ZM490.17 65.1221C491 65.1221 491.81 64.8741 492.5 64.4091C493.19 63.9441 493.73 63.2831 494.05 62.5121C494.36 61.7401 494.44 60.8921 494.27 60.0761C494.1 59.2591 493.69 58.5121 493.1 57.9281C492.51 57.3451 491.75 56.9511 490.93 56.7991C490.12 56.6461 489.27 56.7411 488.51 57.0721C487.74 57.4021 487.09 57.9531 486.64 58.6541C486.19 59.3551 485.96 60.1741 485.98 61.0071C485.95 61.5611 486.04 62.1141 486.25 62.6301C486.45 63.1461 486.76 63.6131 487.16 64.0011C487.55 64.3891 488.02 64.6891 488.54 64.8831C489.06 65.0761 489.61 65.1571 490.17 65.1221Z" fill="#F700E7"/>
<path d="M501.51 55.0821V56.5631C502.58 55.0001 504.3 54.5881 506.19 55.0001V56.8931C505.64 56.7231 505.06 56.6861 504.5 56.7851C503.94 56.8841 503.4 57.1151 502.94 57.4611C502.49 57.8071 502.12 58.2561 501.87 58.7731C501.62 59.2891 501.49 59.8581 501.51 60.4311V66.8511H499.37V55.0821H501.51Z" fill="#F700E7"/>
<path d="M510.96 52.1201C510.96 53.7661 508.33 53.7661 508.33 52.1201C508.33 50.4741 510.96 50.4741 510.96 52.1201ZM510.71 55.0001H508.57V66.8511H510.71V55.0001Z" fill="#F700E7"/>
<path d="M517.04 52.5311V55.0821H519.67V56.8111H517.04V63.3941C517.04 65.1231 518.19 65.2051 519.67 65.0401V66.8511C516.87 67.0981 514.98 66.4391 514.98 63.3941V56.8111H513.18V55.0821H514.98V52.9431L517.04 52.5311Z" fill="#F700E7"/>
<path d="M524.11 54.9181V56.5641C524.48 56.0251 524.99 55.5921 525.58 55.3041C526.17 55.0161 526.82 54.8831 527.47 54.9181C529.12 54.9181 530.51 55.3291 531.42 56.9751C531.8 56.3161 532.35 55.7741 533.02 55.4111C533.69 55.0481 534.44 54.8771 535.2 54.9181C538.4 54.9181 539.8 57.1401 539.8 60.1851V66.8511H537.66V60.1851C537.66 58.5391 537.25 56.8931 535.2 56.8931C533.14 56.8931 532.08 58.2921 532.08 60.1851V66.8511H530.02V60.2671C530.02 58.6211 529.36 56.8931 527.39 56.8931C525.42 56.8931 524.11 58.1271 524.11 60.4321V66.8511H522.05V54.9181H524.11Z" fill="#F700E7"/>
<path d="M548.84 67.0151C545.72 67.0151 542.59 65.0401 542.59 61.0071C542.59 56.9751 545.72 54.9171 548.92 54.9171C552.13 54.9171 555.17 56.9751 555.17 61.0071C555.17 65.0401 552.04 67.0151 548.84 67.0151ZM548.84 65.1221C549.67 65.1221 550.49 64.8741 551.18 64.4091C551.87 63.9441 552.4 63.2831 552.72 62.5121C553.03 61.7401 553.11 60.8921 552.94 60.0761C552.77 59.2591 552.37 58.5121 551.77 57.9281C551.18 57.3451 550.42 56.9511 549.61 56.7991C548.79 56.6461 547.94 56.7411 547.18 57.0721C546.41 57.4021 545.77 57.9531 545.32 58.6541C544.86 59.3551 544.63 60.1741 544.65 61.0071C544.64 61.5581 544.74 62.1051 544.95 62.6151C545.15 63.1251 545.46 63.5871 545.86 63.9731C546.25 64.3581 546.72 64.6591 547.23 64.8571C547.74 65.0541 548.29 65.1451 548.84 65.1221Z" fill="#F700E7"/>
<path d="M562.32 59.9381C564.45 60.1021 567 60.8431 567 63.4771C567 66.1101 564.29 67.0151 562.07 67.0151C559.85 67.0151 557.47 66.0281 557.3 63.2301H559.44C559.52 64.5461 560.76 65.2051 562.23 65.2051C563.71 65.2051 564.86 64.7931 564.86 63.4771C564.86 62.1601 563.06 61.9131 562.07 61.9131C561.08 61.9131 557.47 61.1721 557.47 58.5391C557.47 55.9051 559.85 54.8351 562.15 54.8351C564.45 54.8351 566.51 55.8231 566.67 58.2921H564.54C564.45 57.3041 563.38 56.7281 562.07 56.7281C560.76 56.7281 559.52 57.3041 559.52 58.4561C559.52 59.6091 561.25 59.9381 562.32 59.9381Z" fill="#F700E7"/>
<path d="M458.2 73.9281H460.26V89.0711H458.2V87.5071C457.73 88.0851 457.12 88.5421 456.44 88.8431C455.75 89.1431 455 89.2771 454.26 89.2351C450.15 89.2351 448.01 86.6021 448.01 83.1451C448.01 79.6891 450.23 77.1381 454.26 77.1381C455.01 77.0821 455.76 77.2101 456.44 77.5111C457.13 77.8131 457.73 78.2781 458.2 78.8661V73.9281ZM454.18 79.0311C453.64 79.0301 453.11 79.1371 452.62 79.3451C452.12 79.5531 451.67 79.8571 451.3 80.2411C450.92 80.6241 450.63 81.0781 450.43 81.5771C450.23 82.0761 450.14 82.6091 450.15 83.1451C450.15 85.6141 451.63 87.4251 454.34 87.3431C454.87 87.3561 455.4 87.2571 455.89 87.0521C456.38 86.8461 456.83 86.5391 457.19 86.1511C457.56 85.7631 457.83 85.3011 458.01 84.7981C458.18 84.2941 458.25 83.7591 458.2 83.2281C458.2 80.3471 456.15 78.9481 454.18 79.0311Z" fill="#F700E7"/>
<path d="M475.05 83.7221H465.1C465.1 86.0261 467.32 87.4251 469.05 87.4251C469.76 87.4551 470.47 87.2871 471.09 86.9381C471.72 86.5891 472.23 86.0741 472.58 85.4501H474.72C474.32 86.4811 473.64 87.3821 472.76 88.0571C471.88 88.7321 470.84 89.1541 469.74 89.2791C468.64 89.4041 467.53 89.2261 466.53 88.7651C465.52 88.3041 464.66 87.5781 464.04 86.6631C463.41 85.7491 463.05 84.6811 462.99 83.5761C462.92 82.4701 463.16 81.3681 463.68 80.3881C464.19 79.4091 464.97 78.5881 465.91 78.0161C466.86 77.4431 467.94 77.1391 469.05 77.1381C469.81 77.1051 470.57 77.2241 471.29 77.4881C472 77.7531 472.66 78.1571 473.22 78.6781C473.78 79.1991 474.23 79.8261 474.54 80.5221C474.85 81.2181 475.03 81.9701 475.05 82.7341C475.13 83.0581 475.13 83.3981 475.05 83.7221ZM472.83 81.9931C472.69 81.1141 472.22 80.3201 471.52 79.7711C470.82 79.2211 469.94 78.9571 469.05 79.0311C468.16 78.9731 467.27 79.2421 466.56 79.7861C465.85 80.3311 465.36 81.1151 465.19 81.9931H472.83Z" fill="#F700E7"/>
<path d="M487.46 82.2401C489.67 82.4051 492.14 83.0631 492.14 85.6971C492.14 88.3301 489.51 89.2351 487.29 89.2351C485.07 89.2351 482.61 88.2481 482.44 85.4501H484.58C484.66 86.7661 485.89 87.4251 487.37 87.4251C488.85 87.4251 490.09 87.0131 490.09 85.6971C490.09 84.3801 488.2 84.1331 487.21 84.1331C486.22 84.1331 482.61 83.3921 482.61 80.7591C482.61 78.1251 485.07 77.1381 487.29 77.1381C489.51 77.1381 491.65 78.1251 491.81 80.5121H489.76C489.59 79.5241 488.52 79.0311 487.21 79.0311C485.89 79.0311 484.74 79.5241 484.74 80.7591C484.74 81.9931 486.39 82.1581 487.46 82.2401Z" fill="#F700E7"/>
<path d="M506.68 77.3021V89.0711H504.55V87.5071C503.73 88.7411 501.84 89.2351 500.44 89.2351C496.33 89.2351 494.11 86.3551 494.11 83.1451C494.1 82.3321 494.25 81.5241 494.57 80.7731C494.88 80.0221 495.34 79.3441 495.93 78.7801C496.52 78.2171 497.21 77.7801 497.97 77.4971C498.73 77.2151 499.55 77.0921 500.36 77.1381C501.15 77.0761 501.96 77.1991 502.7 77.4991C503.44 77.7991 504.1 78.2671 504.63 78.8661V77.3021H506.68ZM500.28 79.0301C499.73 79.0061 499.19 79.0971 498.69 79.2961C498.18 79.4951 497.72 79.7991 497.34 80.1871C496.96 80.5761 496.67 81.0401 496.48 81.5491C496.29 82.0591 496.21 82.6031 496.25 83.1451C496.22 83.7101 496.32 84.2731 496.53 84.7991C496.73 85.3251 497.05 85.8011 497.45 86.1971C497.85 86.5921 498.34 86.8991 498.87 87.0961C499.39 87.2941 499.96 87.3771 500.52 87.3421C501.52 87.1741 502.42 86.6501 503.07 85.8661C503.71 85.0821 504.05 84.0921 504.02 83.0791C503.99 82.0651 503.59 81.0971 502.9 80.3531C502.21 79.6091 501.28 79.1391 500.28 79.0301Z" fill="#F700E7"/>
<path d="M518.35 89.0711V87.5071C517.53 88.8241 516.22 89.2351 514.66 89.2351C511.12 89.2351 509.56 87.0131 509.56 83.6391V77.3021H511.7V83.6391C511.7 85.7791 512.27 87.3431 514.74 87.3431C517.2 87.3431 518.27 85.7791 518.27 83.7221V77.3021H520.41V89.0711H518.35ZM513.67 75.2451L515.23 72.9411H518.02L515.56 75.2451H513.67Z" fill="#F700E7"/>
<path d="M533.06 73.9281H535.2V89.0711H533.06V87.5071C532.59 88.0901 531.99 88.5511 531.3 88.8521C530.61 89.1531 529.87 89.2841 529.12 89.2351C525.09 89.2351 522.87 86.6021 522.87 83.1451C522.87 79.6891 525.17 77.1381 529.12 77.1381C529.87 77.0671 530.62 77.1881 531.31 77.4911C532 77.7931 532.61 78.2661 533.06 78.8661V73.9281ZM529.12 79.0311C528.58 79.0191 528.04 79.1181 527.53 79.3211C527.03 79.5241 526.57 79.8261 526.19 80.2111C525.8 80.5951 525.5 81.0531 525.3 81.5581C525.1 82.0621 525 82.6021 525.01 83.1451C525.01 85.6141 526.57 87.4251 529.2 87.3431C529.73 87.3561 530.26 87.2571 530.75 87.0521C531.24 86.8461 531.69 86.5391 532.05 86.1511C532.42 85.7631 532.69 85.3011 532.87 84.7981C533.04 84.2941 533.11 83.7591 533.06 83.2281C533.06 80.3471 531.09 78.9481 529.12 79.0311Z" fill="#F700E7"/>
<path d="M549.91 83.7211H540.05C540.09 84.5821 540.4 85.4061 540.95 86.0691C541.5 86.7311 542.25 87.1961 543.09 87.3911C543.93 87.5871 544.81 87.5031 545.59 87.1531C546.38 86.8021 547.03 86.2041 547.44 85.4501H549.66C549.22 86.6111 548.43 87.6071 547.4 88.2991C546.37 88.9921 545.15 89.3481 543.91 89.3181C542.73 89.3141 541.57 88.9661 540.59 88.3161C539.6 87.6661 538.82 86.7421 538.35 85.6581C537.88 84.5741 537.74 83.3751 537.93 82.2101C538.13 81.0441 538.66 79.9601 539.47 79.0921C540.27 78.2241 541.3 77.6091 542.45 77.3211C543.59 77.0331 544.8 77.0851 545.91 77.4721C547.03 77.8581 548.01 78.5611 548.73 79.4951C549.46 80.4301 549.89 81.5551 549.99 82.7341C550 83.0651 549.98 83.3971 549.91 83.7211ZM547.77 81.9931C547.55 81.1431 547.06 80.3901 546.37 79.8521C545.68 79.3151 544.83 79.0231 543.95 79.0231C543.07 79.0231 542.22 79.3151 541.53 79.8521C540.84 80.3901 540.35 81.1431 540.13 81.9931H547.77Z" fill="#F700E7"/>
<defs>
<linearGradient id="paint0_linear_20502_81" x1="-917.846" y1="58.2678" x2="837.578" y2="58.2678" gradientUnits="userSpaceOnUse">
<stop stop-color="#AC03F3"/>
<stop offset="0.57" stop-color="#F700E7"/>
<stop offset="1" stop-color="#FF4B48"/>
</linearGradient>
<linearGradient id="paint1_linear_20502_81" x1="-23.344" y1="59.9018" x2="2466.7" y2="59.9018" gradientUnits="userSpaceOnUse">
<stop stop-color="#AC03F3"/>
<stop offset="0.57" stop-color="#F700E7"/>
<stop offset="1" stop-color="#FF4B48"/>
</linearGradient>
<linearGradient id="paint2_linear_20502_81" x1="-440.144" y1="59.9049" x2="1574.12" y2="59.9049" gradientUnits="userSpaceOnUse">
<stop stop-color="#AC03F3"/>
<stop offset="0.57" stop-color="#F700E7"/>
<stop offset="1" stop-color="#FF4B48"/>
</linearGradient>
<linearGradient id="paint3_linear_20502_81" x1="-2644.69" y1="59.9018" x2="-154.898" y2="59.9018" gradientUnits="userSpaceOnUse">
<stop stop-color="#AC03F3"/>
<stop offset="0.57" stop-color="#F700E7"/>
<stop offset="1" stop-color="#FF4B48"/>
</linearGradient>
<linearGradient id="paint4_linear_20502_81" x1="-1038.54" y1="59.8929" x2="489.213" y2="59.8929" gradientUnits="userSpaceOnUse">
<stop stop-color="#AC03F3"/>
<stop offset="0.57" stop-color="#F700E7"/>
<stop offset="1" stop-color="#FF4B48"/>
</linearGradient>
</defs>
</svg>
