<svg width="2157" height="1081" viewBox="0 0 2157 1081" fill="none" xmlns="http://www.w3.org/2000/svg">
<path d="M874.38 544.724C874.151 542.165 872.974 539.784 871.081 538.051C869.187 536.317 866.715 535.356 864.149 535.356C861.584 535.356 859.112 536.317 857.218 538.051C855.325 539.784 854.148 542.165 853.919 544.724V588.917C853.791 590.34 853.961 591.773 854.417 593.127C854.874 594.48 855.606 595.723 856.569 596.777C857.531 597.832 858.702 598.674 860.007 599.25C861.313 599.826 862.723 600.123 864.149 600.123C865.576 600.123 866.986 599.826 868.292 599.25C869.597 598.674 870.768 597.832 871.73 596.777C872.693 595.723 873.425 594.48 873.882 593.127C874.338 591.773 874.508 590.34 874.38 588.917V544.724Z" fill="url(#paint0_linear_308_206)"/>
<path d="M805.272 540.197C803.24 540.197 801.254 540.801 799.565 541.931C797.876 543.061 796.559 544.668 795.782 546.548C795.004 548.427 794.801 550.496 795.197 552.491C795.594 554.487 796.572 556.32 798.009 557.758C799.445 559.197 801.275 560.177 803.268 560.574C805.26 560.971 807.326 560.767 809.203 559.988C811.079 559.21 812.684 557.891 813.812 556.2C814.941 554.508 815.543 552.519 815.543 550.484C815.543 547.756 814.461 545.139 812.535 543.21C810.609 541.281 807.996 540.197 805.272 540.197Z" fill="url(#paint1_linear_308_206)"/>
<path d="M844.962 525.055C844.732 522.496 843.555 520.115 841.662 518.382C839.769 516.648 837.296 515.687 834.731 515.687C832.166 515.687 829.693 516.648 827.8 518.382C825.906 520.115 824.729 522.496 824.5 525.055V550.567C824.729 553.125 825.906 555.506 827.8 557.239C829.693 558.973 832.166 559.934 834.731 559.934C837.296 559.934 839.769 558.973 841.662 557.239C843.555 555.506 844.732 553.125 844.962 550.567V525.055Z" fill="url(#paint2_linear_308_206)"/>
<path d="M923.109 540.197C921.078 540.197 919.092 540.801 917.402 541.931C915.713 543.061 914.397 544.668 913.619 546.548C912.842 548.427 912.638 550.496 913.035 552.491C913.431 554.487 914.409 556.32 915.846 557.758C917.282 559.197 919.113 560.177 921.105 560.574C923.098 560.971 925.163 560.767 927.04 559.988C928.917 559.21 930.521 557.891 931.65 556.2C932.778 554.508 933.381 552.519 933.381 550.484C933.381 547.756 932.299 545.139 930.372 543.21C928.446 541.281 925.833 540.197 923.109 540.197Z" fill="url(#paint3_linear_308_206)"/>
<path d="M903.798 495.592C903.926 494.17 903.756 492.736 903.3 491.383C902.843 490.029 902.111 488.786 901.148 487.732C900.186 486.678 899.015 485.836 897.71 485.26C896.405 484.684 894.994 484.386 893.568 484.386C892.141 484.386 890.731 484.684 889.426 485.26C888.12 485.836 886.949 486.678 885.987 487.732C885.024 488.786 884.292 490.029 883.836 491.383C883.379 492.736 883.21 494.17 883.337 495.592V562.088C883.21 563.511 883.379 564.944 883.836 566.298C884.292 567.651 885.024 568.895 885.987 569.949C886.949 571.003 888.12 571.845 889.426 572.421C890.731 572.997 892.141 573.294 893.568 573.294C894.994 573.294 896.405 572.997 897.71 572.421C899.015 571.845 900.186 571.003 901.148 569.949C902.111 568.895 902.843 567.651 903.3 566.298C903.756 564.944 903.926 563.511 903.798 562.088V495.592Z" fill="url(#paint4_linear_308_206)"/>
<path d="M1229.04 550.896C1229.04 553.015 1228.41 555.087 1227.24 556.848C1226.06 558.609 1224.39 559.98 1222.43 560.788C1220.47 561.595 1218.32 561.802 1216.25 561.382C1214.17 560.963 1212.27 559.936 1210.78 558.431C1209.29 556.927 1208.28 555.013 1207.87 552.932C1207.47 550.851 1207.69 548.698 1208.51 546.744C1209.34 544.791 1210.72 543.126 1212.48 541.96C1214.25 540.795 1216.33 540.181 1218.44 540.197C1219.84 540.197 1221.23 540.475 1222.52 541.013C1223.81 541.552 1224.98 542.341 1225.97 543.336C1226.95 544.33 1227.73 545.51 1228.26 546.808C1228.79 548.105 1229.05 549.495 1229.04 550.896" fill="#F700E7"/>
<path d="M948.008 561.183V484.071H967.894V493.453C972.167 485.964 981.945 481.849 990.409 481.849C1000.93 481.849 1009.39 486.375 1013.25 494.687C1019.42 485.305 1027.55 481.849 1037.66 481.849C1051.96 481.849 1065.52 490.49 1065.52 511.146V561.183H1045.38V515.426C1045.38 507.114 1041.28 500.777 1031.74 500.777C1022.21 500.777 1017.53 507.69 1017.53 516.002V561.183H996.819V515.426C996.819 507.114 992.628 500.777 983.26 500.777C973.892 500.777 968.88 507.525 968.88 516.002V561.183H948.008Z" fill="#F7F7F7"/>
<path d="M1098.71 516.825L1117.61 513.945C1122.05 513.368 1123.45 511.146 1123.45 508.513C1123.45 502.999 1119.18 498.473 1110.47 498.473C1101.76 498.473 1096.33 504.234 1095.76 510.982L1077.27 507.114C1078.5 495.016 1089.68 481.684 1110.3 481.684C1134.71 481.684 1143.75 495.51 1143.75 510.982V548.921C1143.77 553.027 1144.1 557.125 1144.73 561.183H1125.59C1125.1 558.107 1124.85 554.998 1124.85 551.883C1120.9 557.973 1113.59 563.322 1102.17 563.322C1085.73 563.322 1075.71 552.212 1075.71 540.115C1075.71 526.371 1085.9 518.718 1098.71 516.825ZM1123.45 529.992V526.536L1106.03 529.169C1100.77 529.992 1096.5 532.955 1096.5 538.88C1096.5 543.407 1099.78 547.851 1106.52 547.851C1115.31 547.851 1123.45 543.571 1123.45 529.992Z" fill="#F7F7F7"/>
<path d="M1202.34 504.727C1200.26 504.288 1198.13 504.068 1196.01 504.069C1185.41 504.069 1176.2 509.253 1176.2 525.877V561.183H1155.33V484.071H1175.55V495.51C1180.23 485.305 1190.91 483.412 1197.41 483.412C1199.05 483.437 1200.7 483.547 1202.34 483.742V504.727Z" fill="#F7F7F7"/>
<path d="M1255.91 536.082V547.851H1253.78V546.205C1252.95 547.521 1251.06 548.015 1249.67 548.015C1245.56 548.015 1243.34 545.135 1243.34 541.925C1243.33 541.112 1243.48 540.304 1243.8 539.553C1244.11 538.802 1244.57 538.124 1245.16 537.56C1245.74 536.997 1246.44 536.56 1247.2 536.277C1247.96 535.995 1248.77 535.872 1249.59 535.918C1250.38 535.856 1251.18 535.979 1251.92 536.279C1252.67 536.579 1253.33 537.047 1253.86 537.646V536.082H1255.91ZM1249.59 537.728C1248.76 537.728 1247.95 537.974 1247.26 538.436C1246.57 538.897 1246.03 539.552 1245.71 540.319C1245.4 541.086 1245.31 541.93 1245.48 542.744C1245.64 543.558 1246.04 544.306 1246.62 544.893C1247.21 545.48 1247.96 545.88 1248.77 546.042C1249.58 546.204 1250.42 546.121 1251.19 545.803C1251.96 545.485 1252.61 544.947 1253.07 544.257C1253.53 543.567 1253.78 542.755 1253.78 541.925C1253.79 541.371 1253.69 540.82 1253.48 540.306C1253.27 539.792 1252.97 539.325 1252.57 538.933C1252.18 538.541 1251.72 538.232 1251.2 538.025C1250.69 537.818 1250.14 537.717 1249.59 537.728Z" fill="#F700E7"/>
<path d="M1261.09 532.626H1258.95V547.801H1261.09V532.626Z" fill="#F700E7"/>
<path d="M1270.05 552.459C1267.09 552.459 1264.38 551.307 1264.38 548.591H1266.43C1266.43 550.073 1268.49 550.566 1270.05 550.566C1271.61 550.566 1273.91 549.661 1273.91 547.357V546.122C1272.92 547.522 1271.44 547.768 1270.05 547.768C1266.1 547.768 1263.8 545.217 1263.8 542.008C1263.8 538.798 1265.94 535.918 1270.05 535.918C1270.79 535.876 1271.54 536.01 1272.23 536.31C1272.91 536.611 1273.52 537.068 1273.99 537.646V536.082H1276.05V547.357C1276.05 551.06 1272.92 552.459 1270.05 552.459M1273.91 541.678C1273.94 541.165 1273.87 540.65 1273.7 540.166C1273.52 539.682 1273.25 539.24 1272.89 538.868C1272.53 538.496 1272.11 538.203 1271.63 538.007C1271.15 537.81 1270.64 537.716 1270.13 537.728C1269.57 537.717 1269.01 537.82 1268.49 538.032C1267.97 538.244 1267.5 538.56 1267.11 538.961C1266.72 539.362 1266.41 539.839 1266.21 540.363C1266.01 540.887 1265.92 541.447 1265.94 542.008C1265.93 542.537 1266.02 543.062 1266.22 543.552C1266.42 544.042 1266.72 544.486 1267.1 544.857C1267.47 545.227 1267.92 545.516 1268.42 545.705C1268.91 545.894 1269.44 545.981 1269.97 545.958C1272.59 545.958 1273.91 543.818 1273.91 541.678" fill="#F700E7"/>
<path d="M1285.17 548.015C1281.96 548.015 1278.84 546.04 1278.84 542.007C1278.84 537.975 1282.04 535.917 1285.17 535.917C1288.29 535.917 1291.49 537.975 1291.49 542.007C1291.49 546.04 1288.29 548.015 1285.17 548.015ZM1285.17 546.122C1286 546.122 1286.81 545.874 1287.5 545.409C1288.19 544.944 1288.73 544.283 1289.05 543.512C1289.36 542.74 1289.44 541.892 1289.27 541.076C1289.1 540.259 1288.69 539.512 1288.1 538.928C1287.51 538.345 1286.75 537.951 1285.93 537.799C1285.12 537.646 1284.27 537.741 1283.51 538.072C1282.74 538.402 1282.09 538.953 1281.64 539.654C1281.19 540.355 1280.96 541.174 1280.98 542.007C1280.95 542.561 1281.04 543.114 1281.25 543.63C1281.45 544.146 1281.76 544.613 1282.16 545.001C1282.55 545.389 1283.02 545.689 1283.54 545.883C1284.06 546.076 1284.61 546.157 1285.17 546.122" fill="#F700E7"/>
<path d="M1296.51 536.082V537.563C1297.58 536 1299.3 535.588 1301.19 536V537.893C1300.64 537.723 1300.06 537.686 1299.5 537.785C1298.94 537.884 1298.4 538.115 1297.94 538.461C1297.49 538.807 1297.12 539.256 1296.87 539.773C1296.62 540.289 1296.49 540.858 1296.51 541.431V547.851H1294.37V536.082H1296.51Z" fill="#F700E7"/>
<path d="M1305.96 533.12C1305.96 534.766 1303.33 534.766 1303.33 533.12C1303.33 531.474 1305.96 531.474 1305.96 533.12ZM1305.71 536H1303.57V547.851H1305.71V536Z" fill="#F700E7"/>
<path d="M1312.04 533.531V536.082H1314.67V537.811H1312.04V544.394C1312.04 546.123 1313.19 546.205 1314.67 546.04V547.851C1311.87 548.098 1309.98 547.439 1309.98 544.394V537.811H1308.18V536.082H1309.98V533.943L1312.04 533.531Z" fill="#F700E7"/>
<path d="M1319.11 535.918V537.564C1319.48 537.025 1319.99 536.592 1320.58 536.304C1321.17 536.016 1321.82 535.883 1322.47 535.918C1324.12 535.918 1325.51 536.329 1326.42 537.975C1326.8 537.316 1327.35 536.774 1328.02 536.411C1328.69 536.048 1329.44 535.877 1330.2 535.918C1333.4 535.918 1334.8 538.14 1334.8 541.185V547.851H1332.66V541.185C1332.66 539.539 1332.25 537.893 1330.2 537.893C1328.14 537.893 1327.08 539.292 1327.08 541.185V547.851H1325.02V541.267C1325.02 539.621 1324.36 537.893 1322.39 537.893C1320.42 537.893 1319.11 539.127 1319.11 541.432V547.851H1317.05V535.918H1319.11Z" fill="#F700E7"/>
<path d="M1343.84 548.015C1340.72 548.015 1337.59 546.04 1337.59 542.007C1337.59 537.975 1340.72 535.917 1343.92 535.917C1347.13 535.917 1350.17 537.975 1350.17 542.007C1350.17 546.04 1347.04 548.015 1343.84 548.015ZM1343.84 546.122C1344.67 546.122 1345.49 545.874 1346.18 545.409C1346.87 544.944 1347.4 544.283 1347.72 543.512C1348.03 542.74 1348.11 541.892 1347.94 541.076C1347.77 540.259 1347.37 539.512 1346.77 538.928C1346.18 538.345 1345.42 537.951 1344.61 537.799C1343.79 537.646 1342.94 537.741 1342.18 538.072C1341.41 538.402 1340.77 538.953 1340.32 539.654C1339.86 540.355 1339.63 541.174 1339.65 542.007C1339.64 542.558 1339.74 543.105 1339.95 543.615C1340.15 544.125 1340.46 544.587 1340.86 544.973C1341.25 545.358 1341.72 545.659 1342.23 545.857C1342.74 546.054 1343.29 546.145 1343.84 546.122Z" fill="#F700E7"/>
<path d="M1357.32 540.938C1359.45 541.102 1362 541.843 1362 544.477C1362 547.11 1359.29 548.015 1357.07 548.015C1354.85 548.015 1352.47 547.028 1352.3 544.23H1354.44C1354.52 545.546 1355.76 546.205 1357.23 546.205C1358.71 546.205 1359.86 545.793 1359.86 544.477C1359.86 543.16 1358.06 542.913 1357.07 542.913C1356.08 542.913 1352.47 542.172 1352.47 539.539C1352.47 536.905 1354.85 535.835 1357.15 535.835C1359.45 535.835 1361.51 536.823 1361.67 539.292H1359.54C1359.45 538.304 1358.38 537.728 1357.07 537.728C1355.76 537.728 1354.52 538.304 1354.52 539.456C1354.52 540.609 1356.25 540.938 1357.32 540.938Z" fill="#F700E7"/>
<path d="M1253.2 554.928H1255.26V570.071H1253.2V568.507C1252.73 569.085 1252.12 569.542 1251.44 569.843C1250.75 570.143 1250 570.277 1249.26 570.235C1245.15 570.235 1243.01 567.602 1243.01 564.145C1243.01 560.689 1245.23 558.138 1249.26 558.138C1250.01 558.082 1250.76 558.21 1251.44 558.511C1252.13 558.813 1252.73 559.278 1253.2 559.866V554.928ZM1249.18 560.031C1248.64 560.03 1248.11 560.137 1247.62 560.345C1247.12 560.553 1246.67 560.857 1246.3 561.241C1245.92 561.624 1245.63 562.078 1245.43 562.577C1245.23 563.076 1245.14 563.609 1245.15 564.145C1245.15 566.614 1246.63 568.425 1249.34 568.343C1249.87 568.356 1250.4 568.257 1250.89 568.052C1251.38 567.846 1251.83 567.539 1252.19 567.151C1252.56 566.763 1252.83 566.301 1253.01 565.798C1253.18 565.294 1253.25 564.759 1253.2 564.228C1253.2 561.347 1251.15 559.948 1249.18 560.031" fill="#F700E7"/>
<path d="M1270.05 564.722H1260.1C1260.1 567.026 1262.32 568.425 1264.05 568.425C1264.76 568.455 1265.47 568.287 1266.09 567.938C1266.72 567.589 1267.23 567.074 1267.58 566.45H1269.72C1269.32 567.481 1268.64 568.382 1267.76 569.057C1266.88 569.732 1265.84 570.154 1264.74 570.279C1263.64 570.404 1262.53 570.226 1261.53 569.765C1260.52 569.304 1259.66 568.578 1259.04 567.663C1258.41 566.749 1258.05 565.681 1257.99 564.576C1257.92 563.47 1258.16 562.368 1258.68 561.388C1259.19 560.409 1259.97 559.588 1260.91 559.016C1261.86 558.443 1262.94 558.139 1264.05 558.138C1264.81 558.105 1265.57 558.224 1266.29 558.488C1267 558.753 1267.66 559.157 1268.22 559.678C1268.78 560.199 1269.23 560.826 1269.54 561.522C1269.85 562.218 1270.03 562.97 1270.05 563.734C1270.13 564.058 1270.13 564.398 1270.05 564.722M1267.83 562.993C1267.69 562.114 1267.22 561.32 1266.52 560.771C1265.82 560.221 1264.94 559.957 1264.05 560.031C1263.16 559.973 1262.27 560.242 1261.56 560.786C1260.85 561.331 1260.36 562.115 1260.19 562.993H1267.83Z" fill="#F700E7"/>
<path d="M1282.46 563.24C1284.67 563.405 1287.14 564.063 1287.14 566.697C1287.14 569.33 1284.51 570.235 1282.29 570.235C1280.07 570.235 1277.61 569.248 1277.44 566.45H1279.58C1279.66 567.766 1280.89 568.425 1282.37 568.425C1283.85 568.425 1285.09 568.013 1285.09 566.697C1285.09 565.38 1283.2 565.133 1282.21 565.133C1281.22 565.133 1277.61 564.392 1277.61 561.759C1277.61 559.125 1280.07 558.138 1282.29 558.138C1284.51 558.138 1286.65 559.125 1286.81 561.512H1284.76C1284.59 560.524 1283.52 560.031 1282.21 560.031C1280.89 560.031 1279.74 560.524 1279.74 561.759C1279.74 562.993 1281.39 563.158 1282.46 563.24" fill="#F700E7"/>
<path d="M1301.68 558.302V570.071H1299.55V568.507C1298.73 569.741 1296.84 570.235 1295.44 570.235C1291.33 570.235 1289.11 567.355 1289.11 564.145C1289.1 563.332 1289.25 562.524 1289.57 561.773C1289.88 561.022 1290.34 560.344 1290.93 559.78C1291.52 559.217 1292.21 558.78 1292.97 558.497C1293.73 558.215 1294.55 558.092 1295.36 558.138C1296.15 558.076 1296.96 558.199 1297.7 558.499C1298.44 558.799 1299.1 559.267 1299.63 559.866V558.302H1301.68ZM1295.28 560.03C1294.73 560.006 1294.19 560.097 1293.69 560.296C1293.18 560.495 1292.72 560.799 1292.34 561.187C1291.96 561.576 1291.67 562.04 1291.48 562.549C1291.29 563.059 1291.21 563.603 1291.25 564.145C1291.22 564.71 1291.32 565.273 1291.53 565.799C1291.73 566.325 1292.05 566.801 1292.45 567.197C1292.85 567.592 1293.34 567.899 1293.87 568.096C1294.39 568.294 1294.96 568.377 1295.52 568.342C1296.52 568.174 1297.42 567.65 1298.07 566.866C1298.71 566.082 1299.05 565.092 1299.02 564.079C1298.99 563.065 1298.59 562.097 1297.9 561.353C1297.21 560.609 1296.28 560.139 1295.28 560.03" fill="#F700E7"/>
<path d="M1313.35 570.071V568.507C1312.53 569.824 1311.22 570.235 1309.66 570.235C1306.12 570.235 1304.56 568.013 1304.56 564.639V558.302H1306.7V564.639C1306.7 566.779 1307.27 568.343 1309.74 568.343C1312.2 568.343 1313.27 566.779 1313.27 564.722V558.302H1315.41V570.071H1313.35ZM1308.67 556.245L1310.23 553.941H1313.02L1310.56 556.245H1308.67Z" fill="#F700E7"/>
<path d="M1328.06 554.928H1330.2V570.071H1328.06V568.507C1327.59 569.09 1326.99 569.551 1326.3 569.852C1325.61 570.153 1324.87 570.284 1324.12 570.235C1320.09 570.235 1317.87 567.602 1317.87 564.145C1317.87 560.689 1320.17 558.138 1324.12 558.138C1324.87 558.067 1325.62 558.188 1326.31 558.491C1327 558.793 1327.61 559.266 1328.06 559.866V554.928ZM1324.12 560.031C1323.58 560.019 1323.04 560.118 1322.53 560.321C1322.03 560.524 1321.57 560.826 1321.19 561.211C1320.8 561.595 1320.5 562.053 1320.3 562.558C1320.1 563.062 1320 563.602 1320.01 564.145C1320.01 566.614 1321.57 568.425 1324.2 568.343C1324.73 568.356 1325.26 568.257 1325.75 568.052C1326.24 567.846 1326.69 567.539 1327.05 567.151C1327.42 566.763 1327.69 566.301 1327.87 565.798C1328.04 565.294 1328.11 564.759 1328.06 564.228C1328.06 561.347 1326.09 559.948 1324.12 560.031" fill="#F700E7"/>
<path d="M1344.91 564.721H1335.05C1335.09 565.582 1335.4 566.406 1335.95 567.069C1336.5 567.731 1337.25 568.196 1338.09 568.391C1338.93 568.587 1339.81 568.503 1340.59 568.153C1341.38 567.802 1342.03 567.204 1342.44 566.45H1344.66C1344.22 567.611 1343.43 568.607 1342.4 569.299C1341.37 569.992 1340.15 570.348 1338.91 570.318C1337.73 570.314 1336.57 569.966 1335.59 569.316C1334.6 568.666 1333.82 567.742 1333.35 566.658C1332.88 565.574 1332.74 564.375 1332.93 563.21C1333.13 562.044 1333.66 560.96 1334.47 560.092C1335.27 559.224 1336.3 558.609 1337.45 558.321C1338.59 558.033 1339.8 558.085 1340.91 558.472C1342.03 558.858 1343.01 559.561 1343.73 560.495C1344.46 561.43 1344.89 562.555 1344.99 563.734C1345 564.065 1344.98 564.397 1344.91 564.721ZM1342.77 562.993C1342.55 562.143 1342.06 561.39 1341.37 560.852C1340.68 560.315 1339.83 560.023 1338.95 560.023C1338.07 560.023 1337.22 560.315 1336.53 560.852C1335.84 561.39 1335.35 562.143 1335.13 562.993H1342.77Z" fill="#F700E7"/>
<defs>
<linearGradient id="paint0_linear_308_206" x1="820.622" y1="566.845" x2="884.225" y2="566.845" gradientUnits="userSpaceOnUse">
<stop stop-color="#AC03F3"/>
<stop offset="0.57" stop-color="#F700E7"/>
<stop offset="1" stop-color="#FF4B48"/>
</linearGradient>
<linearGradient id="paint1_linear_308_206" x1="794.154" y1="550.484" x2="884.372" y2="550.484" gradientUnits="userSpaceOnUse">
<stop stop-color="#AC03F3"/>
<stop offset="0.57" stop-color="#F700E7"/>
<stop offset="1" stop-color="#FF4B48"/>
</linearGradient>
<linearGradient id="paint2_linear_308_206" x1="808.616" y1="537.811" x2="881.307" y2="537.811" gradientUnits="userSpaceOnUse">
<stop stop-color="#AC03F3"/>
<stop offset="0.57" stop-color="#F700E7"/>
<stop offset="1" stop-color="#FF4B48"/>
</linearGradient>
<linearGradient id="paint3_linear_308_206" x1="817.014" y1="550.484" x2="907.225" y2="550.484" gradientUnits="userSpaceOnUse">
<stop stop-color="#AC03F3"/>
<stop offset="0.57" stop-color="#F700E7"/>
<stop offset="1" stop-color="#FF4B48"/>
</linearGradient>
<linearGradient id="paint4_linear_308_206" x1="845.668" y1="528.832" x2="901.021" y2="528.832" gradientUnits="userSpaceOnUse">
<stop stop-color="#AC03F3"/>
<stop offset="0.57" stop-color="#F700E7"/>
<stop offset="1" stop-color="#FF4B48"/>
</linearGradient>
</defs>
</svg>
